<svg width="506.7125px" height="122px" xmlns="http://www.w3.org/2000/svg" viewBox="-3.3562499999999886 14 506.7125 122" style="background: rgba(0, 0, 0, 0);" preserveAspectRatio="xMidYMid"><defs><linearGradient id="editing-sticker-gradient" x1="0.5" y1="0.2" x2="0.5" y2="0.8"><stop offset="0" stop-color="#fd9"></stop><stop offset="1" stop-color="#9df"></stop></linearGradient><filter id="editing-sticker" x="-100%" y="-100%" width="300%" height="300%"><feMorphology operator="erode" radius="1" in="SourceAlpha" result="alpha-erode"></feMorphology><feConvolveMatrix order="3,3" divisor="1" kernelMatrix="0 1 0 1 1 1 0 1 0" in="alpha-erode" result="alpha-round"></feConvolveMatrix><feMorphology operator="dilate" radius="3.5" in="alpha-round" result="dilate-shadow"></feMorphology><feGaussianBlur in="dilate-shadow" stdDeviation="1.5" result="shadow"></feGaussianBlur><feFlood flood-color="#fff" result="flood-sticker"></feFlood><feComposite operator="in" in="flood-sticker" in2="alpha-round" result="comp-sticker"></feComposite><feMorphology operator="dilate" radius="3" in="comp-sticker" result="morph-sticker"></feMorphology><feConvolveMatrix order="3,3" divisor="1" kernelMatrix="0 1 0 1 1 1 0 1 0" in="morph-sticker" result="sticker"></feConvolveMatrix><feMerge><feMergeNode in="shadow"></feMergeNode><feMergeNode in="sticker"></feMergeNode><feMergeNode in="SourceGraphic"></feMergeNode></feMerge></filter></defs><g filter="url(#editing-sticker)"><g transform="translate(71.34498810768127, 96.76000022888184)"><path d="M28.42-9.86L28.42-9.86L28.42-9.86Q29.63-8.32 29.63-5.82L29.63-5.82L29.63-5.82Q29.63-2.37 27.07-0.54L27.07-0.54L27.07-0.54Q24.51 1.28 20.48 1.28L20.48 1.28L20.48 1.28Q18.18 1.28 14.66 0.77L14.66 0.77L14.66 0.77Q7.74-0.32 5.63-0.32L5.63-0.32L5.63-0.32Q3.52-0.32 2.69-0.22L2.69-0.22L2.69-0.22Q1.86-0.13 0.51 0L0.51 0L8.38-42.24L35.97-42.24L35.97-42.24Q35.97-38.34 34.08-36.29L34.08-36.29L34.08-36.29Q32.19-34.24 28.48-34.24L28.48-34.24L28.48-34.24Q24.77-34.24 20.99-35.97L20.99-35.97L19.01-24.77L30.40-24.77L30.40-24.77Q30.40-21.38 28.74-19.49L28.74-19.49L28.74-19.49Q27.07-17.60 24.29-17.60L24.29-17.60L24.29-17.60Q21.50-17.60 19.78-18.24L19.78-18.24L19.78-18.24Q18.05-18.88 17.86-19.07L17.86-19.07L15.55-6.98L15.55-6.98Q17.09-6.78 19.97-6.78L19.97-6.78L19.97-6.78Q24.90-6.78 28.42-9.86ZM66.94-26.62L66.94-26.62L66.94-26.62Q66.94-23.94 64.70-22.27L64.70-22.27L64.70-22.27Q62.46-20.61 58.82-20.61L58.82-20.61L58.82-20.61Q57.28-20.61 56.38-21.06L56.38-21.06L56.38-21.06Q57.09-22.72 57.31-24.80L57.31-24.80L57.31-24.80Q57.54-26.88 57.54-27.46L57.54-27.46L57.54-27.46Q57.54-30.14 55.68-30.14L55.68-30.14L55.68-30.14Q54.40-30.14 52.96-28.54L52.96-28.54L52.96-28.54Q51.52-26.94 50.30-24.45L50.30-24.45L50.30-24.45Q47.62-18.69 47.62-12.86L47.62-12.86L47.62-12.86Q47.62-9.66 48.83-8.22L48.83-8.22L48.83-8.22Q50.05-6.78 52.74-6.78L52.74-6.78L52.74-6.78Q56.45-6.78 59.39-9.86L59.39-9.86L59.39-9.86Q60.22-10.82 60.67-11.90L60.67-11.90L60.67-11.90Q63.10-10.62 63.10-7.10L63.10-7.10L63.10-7.10Q63.10-3.52 59.14-1.15L59.14-1.15L59.14-1.15Q55.04 1.28 48.51 1.28L48.51 1.28L48.51 1.28Q35.52 1.28 35.52-12.48L35.52-12.48L35.52-12.48Q35.52-22.53 41.22-28.29L41.22-28.29L41.22-28.29Q46.72-33.92 56.83-33.92L56.83-33.92L56.83-33.92Q66.94-33.92 66.94-26.62ZM82.62 1.28L82.62 1.28L82.62 1.28Q68.54 1.28 68.54-11.97L68.54-11.97L68.54-11.97Q68.54-21.38 73.73-27.46L73.73-27.46L73.73-27.46Q79.23-33.92 88.77-33.92L88.77-33.92L88.77-33.92Q95.68-33.92 99.20-30.72L99.20-30.72L99.20-30.72Q102.72-27.52 102.72-20.80L102.72-20.80L102.72-20.80Q102.72-10.56 97.22-4.61L97.22-4.61L97.22-4.61Q91.84 1.28 82.62 1.28ZM84.29-26.56L84.29-26.56L84.29-26.56Q83.52-24.83 82.91-22.24L82.91-22.24L82.91-22.24Q82.30-19.65 81.54-15.55L81.54-15.55L81.54-15.55Q80.77-11.46 80.77-6.40L80.77-6.40L80.77-6.40Q80.77-4.74 81.31-3.65L81.31-3.65L81.31-3.65Q81.86-2.56 83.33-2.56L83.33-2.56L83.33-2.56Q84.80-2.56 85.73-3.26L85.73-3.26L85.73-3.26Q86.66-3.97 87.36-5.63L87.36-5.63L87.36-5.63Q88.64-8.58 89.66-14.05L89.66-14.05L89.66-14.05Q90.69-19.52 90.78-21.89L90.78-21.89L90.78-21.89Q90.88-24.26 90.88-26.02L90.88-26.02L90.88-26.02Q90.88-27.78 90.37-28.93L90.37-28.93L90.37-28.93Q89.86-30.08 88.42-30.08L88.42-30.08L88.42-30.08Q86.98-30.08 86.02-29.18L86.02-29.18L86.02-29.18Q85.06-28.29 84.29-26.56ZM152.58 1.28L152.58 1.28L152.58 1.28Q144.83 1.28 144.83-4.74L144.83-4.74L144.83-4.74Q144.83-7.36 145.95-12.45L145.95-12.45L145.95-12.45Q147.07-17.54 147.46-19.58L147.46-19.58L147.46-19.58Q148.35-24.26 148.35-25.73L148.35-25.73L148.35-25.73Q148.35-28.99 145.92-28.99L145.92-28.99L145.92-28.99Q144.32-28.99 142.78-26.78L142.78-26.78L142.78-26.78Q141.25-24.58 140.54-20.16L140.54-20.16L136.58 0L124.10 1.28L127.55-16.13L127.55-16.13Q128.13-19.01 128.64-22.27L128.64-22.27L128.64-22.27Q129.15-25.54 129.15-26.05L129.15-26.05L129.15-26.05Q129.15-28.99 126.98-28.99L126.98-28.99L126.98-28.99Q125.50-28.99 123.90-26.82L123.90-26.82L123.90-26.82Q122.30-24.64 121.41-20.16L121.41-20.16L117.50 0L104.90 1.28L111.62-32.64L122.05-33.92L120.96-27.46L120.96-27.46Q122.62-30.91 125.70-32.42L125.70-32.42L125.70-32.42Q128.77-33.92 133.57-33.92L133.57-33.92L133.57-33.92Q136.32-33.92 138.11-32.58L138.11-32.58L138.11-32.58Q139.90-31.23 140.48-29.06L140.48-29.06L140.48-29.06Q141.57-31.30 144.35-32.61L144.35-32.61L144.35-32.61Q147.14-33.92 150.56-33.92L150.56-33.92L150.56-33.92Q153.98-33.92 155.68-33.18L155.68-33.18L155.68-33.18Q157.38-32.45 158.40-31.23L158.40-31.23L158.40-31.23Q160.13-28.99 160.13-24.90L160.13-24.90L160.13-24.90Q160.13-20.86 158.40-12.48L158.40-12.48L158.40-12.48Q157.50-8.38 157.50-6.88L157.50-6.88L157.50-6.88Q157.50-5.38 158.37-4.48L158.37-4.48L158.37-4.48Q159.23-3.58 160.51-3.46L160.51-3.46L160.51-3.46Q159.87-1.28 157.66 0L157.66 0L157.66 0Q155.46 1.28 152.58 1.28ZM211.52 1.28L211.52 1.28L211.52 1.28Q203.78 1.28 203.78-4.74L203.78-4.74L203.78-4.74Q203.78-7.36 204.90-12.45L204.90-12.45L204.90-12.45Q206.02-17.54 206.40-19.58L206.40-19.58L206.40-19.58Q207.30-24.26 207.30-25.73L207.30-25.73L207.30-25.73Q207.30-28.99 204.86-28.99L204.86-28.99L204.86-28.99Q203.26-28.99 201.73-26.78L201.73-26.78L201.73-26.78Q200.19-24.58 199.49-20.16L199.49-20.16L195.52 0L183.04 1.28L186.50-16.13L186.50-16.13Q187.07-19.01 187.58-22.27L187.58-22.27L187.58-22.27Q188.10-25.54 188.10-26.05L188.10-26.05L188.10-26.05Q188.10-28.99 185.92-28.99L185.92-28.99L185.92-28.99Q184.45-28.99 182.85-26.82L182.85-26.82L182.85-26.82Q181.25-24.64 180.35-20.16L180.35-20.16L176.45 0L163.84 1.28L170.56-32.64L180.99-33.92L179.90-27.46L179.90-27.46Q181.57-30.91 184.64-32.42L184.64-32.42L184.64-32.42Q187.71-33.92 192.51-33.92L192.51-33.92L192.51-33.92Q195.26-33.92 197.06-32.58L197.06-32.58L197.06-32.58Q198.85-31.23 199.42-29.06L199.42-29.06L199.42-29.06Q200.51-31.30 203.30-32.61L203.30-32.61L203.30-32.61Q206.08-33.92 209.50-33.92L209.50-33.92L209.50-33.92Q212.93-33.92 214.62-33.18L214.62-33.18L214.62-33.18Q216.32-32.45 217.34-31.23L217.34-31.23L217.34-31.23Q219.07-28.99 219.07-24.90L219.07-24.90L219.07-24.90Q219.07-20.86 217.34-12.48L217.34-12.48L217.34-12.48Q216.45-8.38 216.45-6.88L216.45-6.88L216.45-6.88Q216.45-5.38 217.31-4.48L217.31-4.48L217.31-4.48Q218.18-3.58 219.46-3.46L219.46-3.46L219.46-3.46Q218.82-1.28 216.61 0L216.61 0L216.61 0Q214.40 1.28 211.52 1.28ZM250.30-10.82L250.30-10.82L250.30-10.82Q251.90-9.73 251.90-7.33L251.90-7.33L251.90-7.33Q251.90-4.93 250.69-3.39L250.69-3.39L250.69-3.39Q249.47-1.86 247.49-0.83L247.49-0.83L247.49-0.83Q243.39 1.28 238.98 1.28L238.98 1.28L238.98 1.28Q234.56 1.28 231.97 0.32L231.97 0.32L231.97 0.32Q229.38-0.64 227.65-2.43L227.65-2.43L227.65-2.43Q224.26-5.82 224.26-12.03L224.26-12.03L224.26-12.03Q224.26-21.70 229.50-27.58L229.50-27.58L229.50-27.58Q235.14-33.92 244.93-33.92L244.93-33.92L244.93-33.92Q251.01-33.92 254.02-31.36L254.02-31.36L254.02-31.36Q256.26-29.44 256.26-26.30L256.26-26.30L256.26-26.30Q256.26-15.04 236.80-15.04L236.80-15.04L236.80-15.04Q236.54-13.38 236.54-11.97L236.54-11.97L236.54-11.97Q236.54-9.02 237.86-7.90L237.86-7.90L237.86-7.90Q239.17-6.78 241.60-6.78L241.60-6.78L241.60-6.78Q244.03-6.78 246.62-7.90L246.62-7.90L246.62-7.90Q249.22-9.02 250.30-10.82ZM237.25-17.79L237.25-17.79L237.25-17.79Q241.79-17.79 244.42-20.61L244.42-20.61L244.42-20.61Q247.04-23.30 247.04-27.58L247.04-27.58L247.04-27.58Q247.04-29.06 246.50-29.86L246.50-29.86L246.50-29.86Q245.95-30.66 244.86-30.66L244.86-30.66L244.86-30.66Q243.78-30.66 242.85-30.24L242.85-30.24L242.85-30.24Q241.92-29.82 240.96-28.42L240.96-28.42L240.96-28.42Q238.59-25.22 237.25-17.79ZM278.46-17.98L278.46-17.98L278.46-17.98Q280.77-22.08 280.77-26.24L280.77-26.24L280.77-26.24Q280.77-28.99 278.78-28.99L278.78-28.99L278.78-28.99Q277.25-28.99 275.65-26.37L275.65-26.37L275.65-26.37Q273.98-23.74 273.47-20.35L273.47-20.35L270.14 0L256.90 1.28L263.42-32.64L273.98-33.92L272.83-27.46L272.83-27.46Q275.97-33.92 283.01-33.92L283.01-33.92L283.01-33.92Q286.72-33.92 288.74-32L288.74-32L288.74-32Q290.75-30.08 290.75-26.14L290.75-26.14L290.75-26.14Q290.75-22.21 288.16-19.71L288.16-19.71L288.16-19.71Q285.57-17.22 281.15-17.22L281.15-17.22L281.15-17.22Q279.23-17.22 278.46-17.98ZM323.20-26.62L323.20-26.62L323.20-26.62Q323.20-23.94 320.96-22.27L320.96-22.27L320.96-22.27Q318.72-20.61 315.07-20.61L315.07-20.61L315.07-20.61Q313.54-20.61 312.64-21.06L312.64-21.06L312.64-21.06Q313.34-22.72 313.57-24.80L313.57-24.80L313.57-24.80Q313.79-26.88 313.79-27.46L313.79-27.46L313.79-27.46Q313.79-30.14 311.94-30.14L311.94-30.14L311.94-30.14Q310.66-30.14 309.22-28.54L309.22-28.54L309.22-28.54Q307.78-26.94 306.56-24.45L306.56-24.45L306.56-24.45Q303.87-18.69 303.87-12.86L303.87-12.86L303.87-12.86Q303.87-9.66 305.09-8.22L305.09-8.22L305.09-8.22Q306.30-6.78 308.99-6.78L308.99-6.78L308.99-6.78Q312.70-6.78 315.65-9.86L315.65-9.86L315.65-9.86Q316.48-10.82 316.93-11.90L316.93-11.90L316.93-11.90Q319.36-10.62 319.36-7.10L319.36-7.10L319.36-7.10Q319.36-3.52 315.39-1.15L315.39-1.15L315.39-1.15Q311.30 1.28 304.77 1.28L304.77 1.28L304.77 1.28Q291.78 1.28 291.78-12.48L291.78-12.48L291.78-12.48Q291.78-22.53 297.47-28.29L297.47-28.29L297.47-28.29Q302.98-33.92 313.09-33.92L313.09-33.92L313.09-33.92Q323.20-33.92 323.20-26.62ZM350.85-10.82L350.85-10.82L350.85-10.82Q352.45-9.73 352.45-7.33L352.45-7.33L352.45-7.33Q352.45-4.93 351.23-3.39L351.23-3.39L351.23-3.39Q350.02-1.86 348.03-0.83L348.03-0.83L348.03-0.83Q343.94 1.28 339.52 1.28L339.52 1.28L339.52 1.28Q335.10 1.28 332.51 0.32L332.51 0.32L332.51 0.32Q329.92-0.64 328.19-2.43L328.19-2.43L328.19-2.43Q324.80-5.82 324.80-12.03L324.80-12.03L324.80-12.03Q324.80-21.70 330.05-27.58L330.05-27.58L330.05-27.58Q335.68-33.92 345.47-33.92L345.47-33.92L345.47-33.92Q351.55-33.92 354.56-31.36L354.56-31.36L354.56-31.36Q356.80-29.44 356.80-26.30L356.80-26.30L356.80-26.30Q356.80-15.04 337.34-15.04L337.34-15.04L337.34-15.04Q337.09-13.38 337.09-11.97L337.09-11.97L337.09-11.97Q337.09-9.02 338.40-7.90L338.40-7.90L338.40-7.90Q339.71-6.78 342.14-6.78L342.14-6.78L342.14-6.78Q344.58-6.78 347.17-7.90L347.17-7.90L347.17-7.90Q349.76-9.02 350.85-10.82ZM337.79-17.79L337.79-17.79L337.79-17.79Q342.34-17.79 344.96-20.61L344.96-20.61L344.96-20.61Q347.58-23.30 347.58-27.58L347.58-27.58L347.58-27.58Q347.58-29.06 347.04-29.86L347.04-29.86L347.04-29.86Q346.50-30.66 345.41-30.66L345.41-30.66L345.41-30.66Q344.32-30.66 343.39-30.24L343.39-30.24L343.39-30.24Q342.46-29.82 341.50-28.42L341.50-28.42L341.50-28.42Q339.14-25.22 337.79-17.79Z" fill="url(#editing-sticker-gradient)" stroke="#000" stroke-width="2.5"></path></g></g><style>text {
  font-size: 64px;
  font-family: Arial Black;
  dominant-baseline: central;
  text-anchor: middle;
}</style></svg>